<mxfile host="app.diagrams.net" agent="Mozilla/5.0 (Windows NT 10.0; Win64; x64) AppleWebKit/537.36 (KHTML, like Gecko) Chrome/131.0.0.0 Safari/537.36" version="28.2.4">
  <diagram name="Page-1" id="iXt3hyUVJFUKklWdt-Ag">
    <mxGraphModel grid="1" page="1" gridSize="10" guides="1" tooltips="1" connect="1" arrows="1" fold="1" pageScale="1" pageWidth="850" pageHeight="1100" math="0" shadow="0">
      <root>
        <mxCell id="0" />
        <mxCell id="1" parent="0" />
        <mxCell id="TcmOz86XAJKvvhzkll71-1" value="Người dùng" style="shape=umlActor;verticalLabelPosition=bottom;verticalAlign=top;html=1;" vertex="1" parent="1">
          <mxGeometry x="30" y="10" width="30" height="60" as="geometry" />
        </mxCell>
        <mxCell id="TcmOz86XAJKvvhzkll71-2" value="" style="html=1;points=[[0,0,0,0,5],[0,1,0,0,-5],[1,0,0,0,5],[1,1,0,0,-5]];perimeter=orthogonalPerimeter;outlineConnect=0;targetShapes=umlLifeline;portConstraint=eastwest;newEdgeStyle={&quot;curved&quot;:0,&quot;rounded&quot;:0};" vertex="1" parent="1">
          <mxGeometry x="40" y="110" width="10" height="1080" as="geometry" />
        </mxCell>
        <mxCell id="TcmOz86XAJKvvhzkll71-3" value="" style="shape=umlLifeline;perimeter=lifelinePerimeter;whiteSpace=wrap;html=1;container=1;dropTarget=0;collapsible=0;recursiveResize=0;outlineConnect=0;portConstraint=eastwest;newEdgeStyle={&quot;curved&quot;:0,&quot;rounded&quot;:0};participant=umlBoundary;" vertex="1" parent="1">
          <mxGeometry x="220" y="30" width="50" height="380" as="geometry" />
        </mxCell>
        <mxCell id="TcmOz86XAJKvvhzkll71-4" value="" style="html=1;points=[[0,0,0,0,5],[0,1,0,0,-5],[1,0,0,0,5],[1,1,0,0,-5]];perimeter=orthogonalPerimeter;outlineConnect=0;targetShapes=umlLifeline;portConstraint=eastwest;newEdgeStyle={&quot;curved&quot;:0,&quot;rounded&quot;:0};" vertex="1" parent="TcmOz86XAJKvvhzkll71-3">
          <mxGeometry x="20" y="298" width="10" height="42" as="geometry" />
        </mxCell>
        <mxCell id="TcmOz86XAJKvvhzkll71-5" value="GDTrangChu" style="text;html=1;align=center;verticalAlign=middle;resizable=0;points=[];autosize=1;strokeColor=none;fillColor=none;" vertex="1" parent="1">
          <mxGeometry x="200" width="90" height="30" as="geometry" />
        </mxCell>
        <mxCell id="TcmOz86XAJKvvhzkll71-6" value="" style="html=1;points=[[0,0,0,0,5],[0,1,0,0,-5],[1,0,0,0,5],[1,1,0,0,-5]];perimeter=orthogonalPerimeter;outlineConnect=0;targetShapes=umlLifeline;portConstraint=eastwest;newEdgeStyle={&quot;curved&quot;:0,&quot;rounded&quot;:0};" vertex="1" parent="1">
          <mxGeometry x="240" y="150" width="10" height="40" as="geometry" />
        </mxCell>
        <mxCell id="TcmOz86XAJKvvhzkll71-7" value="" style="endArrow=block;endFill=1;html=1;align=left;verticalAlign=top;rounded=0;entryX=0;entryY=0;entryDx=0;entryDy=5;entryPerimeter=0;" edge="1" parent="1" source="TcmOz86XAJKvvhzkll71-2" target="TcmOz86XAJKvvhzkll71-6">
          <mxGeometry x="-1" relative="1" as="geometry">
            <mxPoint x="220" y="420" as="sourcePoint" />
            <mxPoint x="410" y="420" as="targetPoint" />
          </mxGeometry>
        </mxCell>
        <mxCell id="TcmOz86XAJKvvhzkll71-8" value="1. Chọn chức năng đăng nhạc" style="text;html=1;align=center;verticalAlign=middle;resizable=0;points=[];autosize=1;strokeColor=none;fillColor=none;" vertex="1" parent="1">
          <mxGeometry x="50" y="130" width="180" height="30" as="geometry" />
        </mxCell>
        <mxCell id="TcmOz86XAJKvvhzkll71-9" value="" style="shape=umlLifeline;perimeter=lifelinePerimeter;whiteSpace=wrap;html=1;container=1;dropTarget=0;collapsible=0;recursiveResize=0;outlineConnect=0;portConstraint=eastwest;newEdgeStyle={&quot;curved&quot;:0,&quot;rounded&quot;:0};participant=umlBoundary;" vertex="1" parent="1">
          <mxGeometry x="430" y="30" width="50" height="1160" as="geometry" />
        </mxCell>
        <mxCell id="TcmOz86XAJKvvhzkll71-10" value="" style="html=1;points=[[0,0,0,0,5],[0,1,0,0,-5],[1,0,0,0,5],[1,1,0,0,-5]];perimeter=orthogonalPerimeter;outlineConnect=0;targetShapes=umlLifeline;portConstraint=eastwest;newEdgeStyle={&quot;curved&quot;:0,&quot;rounded&quot;:0};" vertex="1" parent="TcmOz86XAJKvvhzkll71-9">
          <mxGeometry x="20" y="750" width="10" height="80" as="geometry" />
        </mxCell>
        <mxCell id="TcmOz86XAJKvvhzkll71-11" value="GDDangNhac" style="text;align=center;fontStyle=1;verticalAlign=middle;spacingLeft=3;spacingRight=3;strokeColor=none;rotatable=0;points=[[0,0.5],[1,0.5]];portConstraint=eastwest;html=1;" vertex="1" parent="1">
          <mxGeometry x="415" y="4" width="80" height="26" as="geometry" />
        </mxCell>
        <mxCell id="TcmOz86XAJKvvhzkll71-12" value="" style="html=1;points=[[0,0,0,0,5],[0,1,0,0,-5],[1,0,0,0,5],[1,1,0,0,-5]];perimeter=orthogonalPerimeter;outlineConnect=0;targetShapes=umlLifeline;portConstraint=eastwest;newEdgeStyle={&quot;curved&quot;:0,&quot;rounded&quot;:0};" vertex="1" parent="1">
          <mxGeometry x="450" y="160" width="10" height="230" as="geometry" />
        </mxCell>
        <mxCell id="TcmOz86XAJKvvhzkll71-13" value="" style="endArrow=block;endFill=1;html=1;align=left;verticalAlign=top;rounded=0;entryX=0;entryY=0;entryDx=0;entryDy=5;entryPerimeter=0;" edge="1" parent="1" source="TcmOz86XAJKvvhzkll71-6" target="TcmOz86XAJKvvhzkll71-12">
          <mxGeometry x="-1" relative="1" as="geometry">
            <mxPoint x="190" y="180" as="sourcePoint" />
            <mxPoint x="380" y="180" as="targetPoint" />
          </mxGeometry>
        </mxCell>
        <mxCell id="TcmOz86XAJKvvhzkll71-14" value="2. Mở giao diện đăng nhạc" style="text;html=1;align=center;verticalAlign=middle;resizable=0;points=[];autosize=1;strokeColor=none;fillColor=none;" vertex="1" parent="1">
          <mxGeometry x="250" y="140" width="170" height="30" as="geometry" />
        </mxCell>
        <mxCell id="TcmOz86XAJKvvhzkll71-15" value="" style="endArrow=block;endFill=1;html=1;align=left;verticalAlign=top;rounded=0;" edge="1" parent="1" target="TcmOz86XAJKvvhzkll71-9">
          <mxGeometry x="-1" relative="1" as="geometry">
            <mxPoint x="50" y="272" as="sourcePoint" />
            <mxPoint x="420" y="272" as="targetPoint" />
          </mxGeometry>
        </mxCell>
        <mxCell id="TcmOz86XAJKvvhzkll71-16" value="3. Điền các thông tin của bài nhạc" style="text;html=1;align=center;verticalAlign=middle;resizable=0;points=[];autosize=1;strokeColor=none;fillColor=none;" vertex="1" parent="1">
          <mxGeometry x="50" y="240" width="200" height="30" as="geometry" />
        </mxCell>
        <mxCell id="TcmOz86XAJKvvhzkll71-17" value="" style="endArrow=block;endFill=1;html=1;align=left;verticalAlign=top;rounded=0;" edge="1" parent="1" target="TcmOz86XAJKvvhzkll71-9">
          <mxGeometry x="-1" relative="1" as="geometry">
            <mxPoint x="50" y="311" as="sourcePoint" />
            <mxPoint x="420" y="311" as="targetPoint" />
          </mxGeometry>
        </mxCell>
        <mxCell id="TcmOz86XAJKvvhzkll71-18" value="4.1. Nhấn nút huỷ đăng nhạc" style="text;html=1;align=center;verticalAlign=middle;resizable=0;points=[];autosize=1;strokeColor=none;fillColor=none;" vertex="1" parent="1">
          <mxGeometry x="60" y="280" width="180" height="30" as="geometry" />
        </mxCell>
        <mxCell id="TcmOz86XAJKvvhzkll71-19" value="alt" style="shape=umlFrame;whiteSpace=wrap;html=1;pointerEvents=0;" vertex="1" parent="1">
          <mxGeometry x="280" y="920" width="890" height="230" as="geometry" />
        </mxCell>
        <mxCell id="TcmOz86XAJKvvhzkll71-20" value="" style="shape=umlLifeline;perimeter=lifelinePerimeter;whiteSpace=wrap;html=1;container=1;dropTarget=0;collapsible=0;recursiveResize=0;outlineConnect=0;portConstraint=eastwest;newEdgeStyle={&quot;curved&quot;:0,&quot;rounded&quot;:0};participant=umlBoundary;" vertex="1" parent="1">
          <mxGeometry x="685" y="28" width="50" height="1162" as="geometry" />
        </mxCell>
        <mxCell id="TcmOz86XAJKvvhzkll71-21" value="GDXacNhan" style="text;align=center;fontStyle=1;verticalAlign=middle;spacingLeft=3;spacingRight=3;strokeColor=none;rotatable=0;points=[[0,0.5],[1,0.5]];portConstraint=eastwest;html=1;" vertex="1" parent="1">
          <mxGeometry x="670" y="2" width="80" height="26" as="geometry" />
        </mxCell>
        <mxCell id="TcmOz86XAJKvvhzkll71-22" value="" style="html=1;points=[[0,0,0,0,5],[0,1,0,0,-5],[1,0,0,0,5],[1,1,0,0,-5]];perimeter=orthogonalPerimeter;outlineConnect=0;targetShapes=umlLifeline;portConstraint=eastwest;newEdgeStyle={&quot;curved&quot;:0,&quot;rounded&quot;:0};" vertex="1" parent="1">
          <mxGeometry x="705" y="470" width="10" height="200" as="geometry" />
        </mxCell>
        <mxCell id="TcmOz86XAJKvvhzkll71-23" value="" style="endArrow=block;endFill=1;html=1;align=left;verticalAlign=top;rounded=0;" edge="1" parent="1">
          <mxGeometry x="-1" relative="1" as="geometry">
            <mxPoint x="50" y="522" as="sourcePoint" />
            <mxPoint x="705" y="522" as="targetPoint" />
          </mxGeometry>
        </mxCell>
        <mxCell id="TcmOz86XAJKvvhzkll71-24" value="6.1. Nhấn nút huỷ" style="text;html=1;align=center;verticalAlign=middle;resizable=0;points=[];autosize=1;strokeColor=none;fillColor=none;" vertex="1" parent="1">
          <mxGeometry x="50" y="490" width="120" height="30" as="geometry" />
        </mxCell>
        <mxCell id="TcmOz86XAJKvvhzkll71-25" value="" style="endArrow=block;endFill=1;html=1;align=left;verticalAlign=top;rounded=0;" edge="1" parent="1" target="TcmOz86XAJKvvhzkll71-22">
          <mxGeometry x="-1" relative="1" as="geometry">
            <mxPoint x="450" y="480" as="sourcePoint" />
            <mxPoint x="700" y="480" as="targetPoint" />
          </mxGeometry>
        </mxCell>
        <mxCell id="TcmOz86XAJKvvhzkll71-26" value="5, Mở giao diện xác nhận" style="text;html=1;align=center;verticalAlign=middle;resizable=0;points=[];autosize=1;strokeColor=none;fillColor=none;" vertex="1" parent="1">
          <mxGeometry x="470" y="445" width="160" height="30" as="geometry" />
        </mxCell>
        <mxCell id="TcmOz86XAJKvvhzkll71-27" value="" style="endArrow=block;endFill=1;html=1;align=left;verticalAlign=top;rounded=0;" edge="1" parent="1">
          <mxGeometry x="-1" relative="1" as="geometry">
            <mxPoint x="715" y="732" as="sourcePoint" />
            <mxPoint x="715" y="782" as="targetPoint" />
            <Array as="points">
              <mxPoint x="785" y="732" />
              <mxPoint x="785" y="782" />
            </Array>
          </mxGeometry>
        </mxCell>
        <mxCell id="TcmOz86XAJKvvhzkll71-28" value="7. Kiểm tra dữ liệu hợp lệ" style="text;html=1;align=center;verticalAlign=middle;resizable=0;points=[];autosize=1;strokeColor=none;fillColor=none;" vertex="1" parent="1">
          <mxGeometry x="720" y="700" width="160" height="30" as="geometry" />
        </mxCell>
        <mxCell id="TcmOz86XAJKvvhzkll71-29" value="" style="shape=umlLifeline;perimeter=lifelinePerimeter;whiteSpace=wrap;html=1;container=1;dropTarget=0;collapsible=0;recursiveResize=0;outlineConnect=0;portConstraint=eastwest;newEdgeStyle={&quot;curved&quot;:0,&quot;rounded&quot;:0};participant=umlEntity;" vertex="1" parent="1">
          <mxGeometry x="1110" y="30" width="40" height="1160" as="geometry" />
        </mxCell>
        <mxCell id="TcmOz86XAJKvvhzkll71-30" value="" style="html=1;points=[[0,0,0,0,5],[0,1,0,0,-5],[1,0,0,0,5],[1,1,0,0,-5]];perimeter=orthogonalPerimeter;outlineConnect=0;targetShapes=umlLifeline;portConstraint=eastwest;newEdgeStyle={&quot;curved&quot;:0,&quot;rounded&quot;:0};" vertex="1" parent="TcmOz86XAJKvvhzkll71-29">
          <mxGeometry x="15" y="930" width="10" height="80" as="geometry" />
        </mxCell>
        <mxCell id="TcmOz86XAJKvvhzkll71-31" value="" style="shape=umlLifeline;perimeter=lifelinePerimeter;whiteSpace=wrap;html=1;container=1;dropTarget=0;collapsible=0;recursiveResize=0;outlineConnect=0;portConstraint=eastwest;newEdgeStyle={&quot;curved&quot;:0,&quot;rounded&quot;:0};participant=umlControl;" vertex="1" parent="1">
          <mxGeometry x="900" y="28" width="40" height="1162" as="geometry" />
        </mxCell>
        <mxCell id="TcmOz86XAJKvvhzkll71-32" value="Ctr_DangNhac" style="text;align=center;fontStyle=1;verticalAlign=middle;spacingLeft=3;spacingRight=3;strokeColor=none;rotatable=0;points=[[0,0.5],[1,0.5]];portConstraint=eastwest;html=1;" vertex="1" parent="1">
          <mxGeometry x="880" y="2" width="80" height="26" as="geometry" />
        </mxCell>
        <mxCell id="TcmOz86XAJKvvhzkll71-33" value="E_Track" style="text;align=center;fontStyle=1;verticalAlign=middle;spacingLeft=3;spacingRight=3;strokeColor=none;rotatable=0;points=[[0,0.5],[1,0.5]];portConstraint=eastwest;html=1;" vertex="1" parent="1">
          <mxGeometry x="1090" y="4" width="80" height="26" as="geometry" />
        </mxCell>
        <mxCell id="TcmOz86XAJKvvhzkll71-34" value="" style="endArrow=block;endFill=1;html=1;align=left;verticalAlign=top;rounded=0;" edge="1" parent="1">
          <mxGeometry x="-1" relative="1" as="geometry">
            <mxPoint x="705" y="880" as="sourcePoint" />
            <mxPoint x="50" y="880" as="targetPoint" />
          </mxGeometry>
        </mxCell>
        <mxCell id="TcmOz86XAJKvvhzkll71-35" value="8. Thông báo đăng bài thành công" style="text;html=1;align=center;verticalAlign=middle;resizable=0;points=[];autosize=1;strokeColor=none;fillColor=none;" vertex="1" parent="1">
          <mxGeometry x="60" y="850" width="210" height="30" as="geometry" />
        </mxCell>
        <mxCell id="TcmOz86XAJKvvhzkll71-36" value="" style="endArrow=block;endFill=1;html=1;align=left;verticalAlign=top;rounded=0;" edge="1" parent="1" source="TcmOz86XAJKvvhzkll71-12">
          <mxGeometry x="-1" relative="1" as="geometry">
            <mxPoint x="420" y="350" as="sourcePoint" />
            <mxPoint x="250" y="350" as="targetPoint" />
          </mxGeometry>
        </mxCell>
        <mxCell id="TcmOz86XAJKvvhzkll71-37" value="4.2. Hiển thị giao diện trang chủ" style="text;html=1;align=center;verticalAlign=middle;resizable=0;points=[];autosize=1;strokeColor=none;fillColor=none;" vertex="1" parent="1">
          <mxGeometry x="255" y="320" width="190" height="30" as="geometry" />
        </mxCell>
        <mxCell id="TcmOz86XAJKvvhzkll71-38" value="" style="endArrow=block;endFill=1;html=1;align=left;verticalAlign=top;rounded=0;entryX=0;entryY=1;entryDx=0;entryDy=-5;entryPerimeter=0;" edge="1" parent="1" source="TcmOz86XAJKvvhzkll71-2" target="TcmOz86XAJKvvhzkll71-12">
          <mxGeometry x="-1" relative="1" as="geometry">
            <mxPoint x="55" y="440" as="sourcePoint" />
            <mxPoint x="460" y="440" as="targetPoint" />
          </mxGeometry>
        </mxCell>
        <mxCell id="TcmOz86XAJKvvhzkll71-39" value="4. Nhấn nút đồng ý" style="text;html=1;align=center;verticalAlign=middle;resizable=0;points=[];autosize=1;strokeColor=none;fillColor=none;" vertex="1" parent="1">
          <mxGeometry x="60" y="360" width="120" height="30" as="geometry" />
        </mxCell>
        <mxCell id="TcmOz86XAJKvvhzkll71-40" value="alt" style="shape=umlFrame;whiteSpace=wrap;html=1;pointerEvents=0;" vertex="1" parent="1">
          <mxGeometry y="410" width="780" height="270" as="geometry" />
        </mxCell>
        <mxCell id="TcmOz86XAJKvvhzkll71-41" value="" style="html=1;points=[[0,0,0,0,5],[0,1,0,0,-5],[1,0,0,0,5],[1,1,0,0,-5]];perimeter=orthogonalPerimeter;outlineConnect=0;targetShapes=umlLifeline;portConstraint=eastwest;newEdgeStyle={&quot;curved&quot;:0,&quot;rounded&quot;:0};" vertex="1" parent="1">
          <mxGeometry x="450" y="420" width="10" height="80" as="geometry" />
        </mxCell>
        <mxCell id="TcmOz86XAJKvvhzkll71-42" value="" style="html=1;points=[[0,0,0,0,5],[0,1,0,0,-5],[1,0,0,0,5],[1,1,0,0,-5]];perimeter=orthogonalPerimeter;outlineConnect=0;targetShapes=umlLifeline;portConstraint=eastwest;newEdgeStyle={&quot;curved&quot;:0,&quot;rounded&quot;:0};" vertex="1" parent="1">
          <mxGeometry x="450" y="540" width="10" height="80" as="geometry" />
        </mxCell>
        <mxCell id="TcmOz86XAJKvvhzkll71-43" value="" style="endArrow=block;endFill=1;html=1;align=left;verticalAlign=top;rounded=0;" edge="1" parent="1">
          <mxGeometry x="-1" relative="1" as="geometry">
            <mxPoint x="705" y="579.5" as="sourcePoint" />
            <mxPoint x="460" y="579.5" as="targetPoint" />
          </mxGeometry>
        </mxCell>
        <mxCell id="TcmOz86XAJKvvhzkll71-44" value="6.2. Mở giao diện đăng nhạc" style="text;html=1;align=center;verticalAlign=middle;resizable=0;points=[];autosize=1;strokeColor=none;fillColor=none;" vertex="1" parent="1">
          <mxGeometry x="460" y="548" width="180" height="30" as="geometry" />
        </mxCell>
        <mxCell id="TcmOz86XAJKvvhzkll71-45" value="" style="endArrow=block;endFill=1;html=1;align=left;verticalAlign=top;rounded=0;" edge="1" parent="1">
          <mxGeometry x="-1" relative="1" as="geometry">
            <mxPoint x="50" y="662" as="sourcePoint" />
            <mxPoint x="705" y="662" as="targetPoint" />
          </mxGeometry>
        </mxCell>
        <mxCell id="TcmOz86XAJKvvhzkll71-46" value="6. Nhấn nút đồng ý" style="text;html=1;align=center;verticalAlign=middle;resizable=0;points=[];autosize=1;strokeColor=none;fillColor=none;" vertex="1" parent="1">
          <mxGeometry x="50" y="630" width="120" height="30" as="geometry" />
        </mxCell>
        <mxCell id="TcmOz86XAJKvvhzkll71-47" value="alt" style="shape=umlFrame;whiteSpace=wrap;html=1;pointerEvents=0;" vertex="1" parent="1">
          <mxGeometry x="10" y="670" width="890" height="240" as="geometry" />
        </mxCell>
        <mxCell id="TcmOz86XAJKvvhzkll71-48" value="" style="html=1;points=[[0,0,0,0,5],[0,1,0,0,-5],[1,0,0,0,5],[1,1,0,0,-5]];perimeter=orthogonalPerimeter;outlineConnect=0;targetShapes=umlLifeline;portConstraint=eastwest;newEdgeStyle={&quot;curved&quot;:0,&quot;rounded&quot;:0};" vertex="1" parent="1">
          <mxGeometry x="705" y="720" width="10" height="190" as="geometry" />
        </mxCell>
        <mxCell id="TcmOz86XAJKvvhzkll71-49" value="" style="endArrow=block;endFill=1;html=1;align=left;verticalAlign=top;rounded=0;" edge="1" parent="1">
          <mxGeometry x="-1" relative="1" as="geometry">
            <mxPoint x="705" y="760" as="sourcePoint" />
            <mxPoint x="50" y="760" as="targetPoint" />
          </mxGeometry>
        </mxCell>
        <mxCell id="TcmOz86XAJKvvhzkll71-50" value="7.1. Thông báo đăng bài không thành công" style="text;html=1;align=center;verticalAlign=middle;resizable=0;points=[];autosize=1;strokeColor=none;fillColor=none;" vertex="1" parent="1">
          <mxGeometry x="60" y="730" width="250" height="30" as="geometry" />
        </mxCell>
        <mxCell id="TcmOz86XAJKvvhzkll71-51" value="" style="endArrow=block;endFill=1;html=1;align=left;verticalAlign=top;rounded=0;" edge="1" parent="1">
          <mxGeometry x="-1" relative="1" as="geometry">
            <mxPoint x="705" y="831.5" as="sourcePoint" />
            <mxPoint x="460" y="831.5" as="targetPoint" />
          </mxGeometry>
        </mxCell>
        <mxCell id="TcmOz86XAJKvvhzkll71-52" value="7.2. Mở giao diện đăng nhạc" style="text;html=1;align=center;verticalAlign=middle;resizable=0;points=[];autosize=1;strokeColor=none;fillColor=none;" vertex="1" parent="1">
          <mxGeometry x="460" y="800" width="180" height="30" as="geometry" />
        </mxCell>
        <mxCell id="TcmOz86XAJKvvhzkll71-53" value="" style="html=1;points=[[0,0,0,0,5],[0,1,0,0,-5],[1,0,0,0,5],[1,1,0,0,-5]];perimeter=orthogonalPerimeter;outlineConnect=0;targetShapes=umlLifeline;portConstraint=eastwest;newEdgeStyle={&quot;curved&quot;:0,&quot;rounded&quot;:0};" vertex="1" parent="1">
          <mxGeometry x="705" y="930" width="10" height="110" as="geometry" />
        </mxCell>
        <mxCell id="TcmOz86XAJKvvhzkll71-54" value="" style="html=1;points=[[0,0,0,0,5],[0,1,0,0,-5],[1,0,0,0,5],[1,1,0,0,-5]];perimeter=orthogonalPerimeter;outlineConnect=0;targetShapes=umlLifeline;portConstraint=eastwest;newEdgeStyle={&quot;curved&quot;:0,&quot;rounded&quot;:0};" vertex="1" parent="1">
          <mxGeometry x="915" y="940" width="10" height="80" as="geometry" />
        </mxCell>
        <mxCell id="TcmOz86XAJKvvhzkll71-55" value="" style="endArrow=block;endFill=1;html=1;align=left;verticalAlign=top;rounded=0;" edge="1" parent="1">
          <mxGeometry x="-1" relative="1" as="geometry">
            <mxPoint x="715" y="979.5" as="sourcePoint" />
            <mxPoint x="915" y="979.5" as="targetPoint" />
          </mxGeometry>
        </mxCell>
        <mxCell id="TcmOz86XAJKvvhzkll71-56" value="8.1. Gửi yêu cầu thêm 1 bài hát" style="text;html=1;align=center;verticalAlign=middle;resizable=0;points=[];autosize=1;strokeColor=none;fillColor=none;" vertex="1" parent="1">
          <mxGeometry x="720" y="948" width="190" height="30" as="geometry" />
        </mxCell>
        <mxCell id="TcmOz86XAJKvvhzkll71-57" value="" style="endArrow=block;endFill=1;html=1;align=left;verticalAlign=top;rounded=0;" edge="1" parent="1">
          <mxGeometry x="-1" relative="1" as="geometry">
            <mxPoint x="925" y="1000" as="sourcePoint" />
            <mxPoint x="1125" y="1000" as="targetPoint" />
          </mxGeometry>
        </mxCell>
        <mxCell id="TcmOz86XAJKvvhzkll71-58" value="8.2. Thêm bài hát mới vào" style="text;html=1;align=center;verticalAlign=middle;resizable=0;points=[];autosize=1;strokeColor=none;fillColor=none;" vertex="1" parent="1">
          <mxGeometry x="945" y="978" width="160" height="30" as="geometry" />
        </mxCell>
        <mxCell id="TcmOz86XAJKvvhzkll71-59" value="" style="endArrow=block;endFill=1;html=1;align=left;verticalAlign=top;rounded=0;" edge="1" parent="1">
          <mxGeometry x="-1" relative="1" as="geometry">
            <mxPoint x="705" y="1019" as="sourcePoint" />
            <mxPoint x="460" y="1019" as="targetPoint" />
          </mxGeometry>
        </mxCell>
        <mxCell id="TcmOz86XAJKvvhzkll71-60" value="9. Mở giao diện đăng nhạc" style="text;html=1;align=center;verticalAlign=middle;resizable=0;points=[];autosize=1;strokeColor=none;fillColor=none;" vertex="1" parent="1">
          <mxGeometry x="465" y="987.5" width="170" height="30" as="geometry" />
        </mxCell>
        <mxCell id="TcmOz86XAJKvvhzkll71-61" value="" style="html=1;points=[[0,0,0,0,5],[0,1,0,0,-5],[1,0,0,0,5],[1,1,0,0,-5]];perimeter=orthogonalPerimeter;outlineConnect=0;targetShapes=umlLifeline;portConstraint=eastwest;newEdgeStyle={&quot;curved&quot;:0,&quot;rounded&quot;:0};" vertex="1" parent="1">
          <mxGeometry x="450" y="970" width="10" height="80" as="geometry" />
        </mxCell>
      </root>
    </mxGraphModel>
  </diagram>
</mxfile>
